<svg width="121" height="109" viewBox="0 0 121 109" fill="none" xmlns="http://www.w3.org/2000/svg">
<g clip-path="url(#clip0_0_1)">
<path d="M24.6282 80.3542C25.7698 78.4991 26.3406 77.5716 27.276 77.2056C28.2115 76.8396 29.2602 77.1335 31.3575 77.7214L56.2701 84.7042C64.8941 87.1215 69.2061 88.3301 69.1828 90.6287C69.1595 92.9274 64.824 94.0484 56.1528 96.2905L21.4157 105.273C15.3031 106.853 12.2468 107.643 11.0435 106.014C9.84027 104.385 11.4947 101.696 14.8037 96.319L24.6282 80.3542Z" fill="#DD1D4A"/>
<path d="M21 10C21 4.47716 25.4772 0 31 0H111C116.523 0 121 4.47715 121 10V90C121 95.5228 116.523 100 111 100H31C25.4772 100 21 95.5229 21 90V10Z" fill="#DD1D4A"/>
<path d="M70.792 41.28C69.9813 39.7867 68.808 38.656 67.272 37.888C65.7787 37.0773 64.008 36.672 61.96 36.672C58.4187 36.672 55.5813 37.8453 53.448 40.192C51.3147 42.496 50.248 45.5893 50.248 49.472C50.248 53.6107 51.3573 56.8533 53.576 59.2C55.8373 61.504 58.9307 62.656 62.856 62.656C65.544 62.656 67.8053 61.9733 69.64 60.608C71.5173 59.2427 72.8827 57.28 73.736 54.72H59.848V46.656H83.656V56.832C82.8453 59.5627 81.4587 62.1013 79.496 64.448C77.576 66.7947 75.1227 68.6933 72.136 70.144C69.1493 71.5947 65.7787 72.32 62.024 72.32C57.5867 72.32 53.6187 71.36 50.12 69.44C46.664 67.4773 43.9547 64.768 41.992 61.312C40.072 57.856 39.112 53.9093 39.112 49.472C39.112 45.0347 40.072 41.088 41.992 37.632C43.9547 34.1333 46.664 31.424 50.12 29.504C53.576 27.5413 57.5227 26.56 61.96 26.56C67.336 26.56 71.8587 27.8613 75.528 30.464C79.24 33.0667 81.6933 36.672 82.888 41.28H70.792ZM104.118 25.472L102.838 56.128H93.558L92.278 25.472H104.118ZM98.358 72.512C96.438 72.512 94.8593 71.9573 93.622 70.848C92.4273 69.696 91.83 68.288 91.83 66.624C91.83 64.9173 92.4273 63.488 93.622 62.336C94.8593 61.184 96.438 60.608 98.358 60.608C100.235 60.608 101.771 61.184 102.966 62.336C104.203 63.488 104.822 64.9173 104.822 66.624C104.822 68.288 104.203 69.696 102.966 70.848C101.771 71.9573 100.235 72.512 98.358 72.512Z" fill="#FDFDFD"/>
</g>
<defs>
<clipPath id="clip0_0_1">
<rect width="120.111" height="109" fill="white" transform="translate(0.888527)"/>
</clipPath>
</defs>
</svg>
